<?xml version="1.0" encoding="utf-8"?>
<!-- Generator: Adobe Illustrator 22.1.0, SVG Export Plug-In . SVG Version: 6.00 Build 0)  -->
<svg version="1.1" id="Слой_1" xmlns="http://www.w3.org/2000/svg" xmlns:xlink="http://www.w3.org/1999/xlink" x="0px" y="0px"
	 viewBox="0 0 160 27.9" style="enable-background:new 0 0 160 27.9;" xml:space="preserve">
<style type="text/css">
	.st0{fill:#fff9ef;}
</style>
<title  id="logoTitleID">Pray As You Go Logo - return to homepage</title>
<desc  data-sentry-element="desc" data-sentry-source-file="PAYGLogo.tsx" id="logoDescID">
	The Pray As You Go brand name with an abstract graphic in the shape of a church arch, links to the homepage</desc>
<g>
	<defs>
		<rect id="SVGID_1_" y="0" width="160" height="27.9"/>
	</defs>
	<clipPath id="SVGID_2_">
		<use xlink:href="#SVGID_1_"  style="overflow:visible;"/>
	</clipPath>
</g>
<path class="st0" d="M115.4,21.6c-0.6,1.2-1.3,2.3-1.9,2.3c-0.3,0-0.3-0.2-0.3-0.4c0-0.2,0.1-0.5,0.2-0.8v0l2.3-6.8h-1.2
	c-0.1,1.2-1.1,3.4-1.9,4.7c-1.2,2.1-2.2,3.1-2.9,3.1c-0.2,0-0.4-0.2-0.4-0.6c0-0.7,0.6-2,1.3-3.5c0.3-0.6,0.5-1.2,0.8-1.9
	c0-0.1,0-0.1,0.1-0.2c0.2-0.5,0.3-0.8,0.3-1.1c0-0.1,0-0.2,0-0.3c0.1-0.3,0.1-0.5-0.7-0.5c-1,0-2.1,1.3-2.7,2.6h0.3
	c0.5-1,1.3-2,1.9-2c0.1,0,0.2,0.1,0.2,0.3c0,0.2-0.1,0.5-0.2,0.9c0,0.1-0.1,0.2-0.1,0.3c-0.2,0.4-0.4,0.9-0.6,1.4
	c-0.8,1.7-1.5,3.4-1.5,4.4l0,0v0.2c0,0.5,0,0.8,0.9,0.8c1,0,2.3-1.3,4.1-4.9h0.1l-1.1,3.1c0,0.1-0.1,0.2-0.1,0.2
	c-0.1,0.2-0.2,0.4-0.2,0.7c0,0.1,0,0.2,0,0.2c0,0.4,0,0.6,0.9,0.6c1.1,0,2.1-1.5,2.6-2.9H115.4z M106.6,15.7c-2.1,0-4.4,3.4-4.4,6.4
	h0v0.5c0,1.2,0,1.9,1.8,1.9c2.1,0,4.4-3.3,4.4-6.3v-0.4C108.5,16.5,108.5,15.7,106.6,15.7z M107.5,18.2c0,2.7-1.8,5.8-3.2,5.8
	c-0.2,0-0.3,0-0.5,0.1c-0.5,0.1-0.7,0.2-0.7-1.9c0-2.7,1.8-5.8,3.2-5.8C107.2,16.3,107.5,17,107.5,18.2L107.5,18.2z M101.8,15.8
	c-0.3,0-0.4,0-0.4,0.5c0,0.2,0,0.2,0.1,0.3c0.1,0.2,0.3,0.4,0.3,1.4c0,1.5-0.9,3.6-2.9,6.2c0.3-2.6,0.3-4.9,0.3-6.2
	c0-1.5-0.1-2-0.9-2c-0.8,0-1.5,1.4-2,2.8h0.3c0.5-1.2,1-2.1,1.3-2.1c0.3,0,0.4,0.2,0.4,1.4c0,1.3,0,3.8-0.3,7.1
	c-0.7,1.1-1.7,2.1-2.2,2.1c-0.2,0-0.4-0.1-0.6-0.2c-0.2-0.1-0.3-0.2-0.5-0.2c-0.4,0-0.8,0.3-0.8,0.7c0,0.1-0.1,0.2-0.2,0.2
	c-0.2,0.2-0.4,0.3,0.9,0.3c1.8,0,3.4-1.9,5.1-4.4c1.7-2.4,2.7-4.6,2.7-6.3C102.5,16.2,102.1,15.8,101.8,15.8z M114.7,3.7
	c-1.3,0-2.4,0.9-2.4,2.3c0,0.7,0.3,1.2,0.9,2.2l0.5,0.8c0.1,0.1,0.1,0.2,0.2,0.2c0.2,0.4,0.4,0.6,0.4,1.3c0,0.9-0.5,1.5-1.3,1.5
	c-0.8,0-1.1-0.4-1.4-1.1l0-0.1l0,0c-0.1-0.3-0.2-0.5-0.4-0.5c-0.3,0-0.5,0.2-0.5,0.5h0c0,0.8,0.8,1.6,2.1,1.6c1.3,0,2.3-1,2.3-2.4
	c0-0.6-0.2-1-0.7-1.9L114.1,8l-0.5-0.8c0-0.1-0.1-0.2-0.1-0.2c-0.3-0.5-0.4-0.7-0.4-1.5c0-0.9,0.6-1.4,1.3-1.4
	c0.7,0,0.9,0.4,1.1,0.8c0.1,0.3,0.2,0.5,0.4,0.5c0.2,0,0.5,0,0.5-0.5C116.3,4.4,115.9,3.7,114.7,3.7z M108.8,11.7
	c-0.2,0-0.3-0.2-0.3-0.4c0-0.2,0.1-0.4,0.2-0.6c0,0,0-0.1,0-0.1l2.5-6.8l-0.2-0.1c-0.2,0.3-0.5,0.5-0.9,0.5l-0.5,1.3h-0.1
	c0-0.2,0.1-0.4,0.1-0.6c0.2-0.7,0.3-1.1-1.4-1.1c-2.1,0-4.6,4.2-4.6,6.9v0.1c0,1,0,1.7,1.2,1.7c1.3,0,2.9-2.7,3.7-4.3h0.1l-0.9,2.5
	c0,0.1-0.1,0.2-0.1,0.3c-0.1,0.2-0.2,0.4-0.2,0.7c0,0.1,0,0.2,0,0.2c0,0.3,0,0.6,0.8,0.6c1.1,0,2.1-1.5,2.6-2.9h-0.3
	C110.2,10.6,109.5,11.7,108.8,11.7z M104.7,10.4c0-2.5,2.1-6.2,3.7-6.2c0.6,0,0.8,0.5,0.8,1.1c0,0.6-0.2,1.2-0.4,1.7v0
	c-0.6,1.8-3,4.9-3.6,4.5S104.7,10.4,104.7,10.4z M150.4,3.6c-5.6,0-9.6,4.3-9.6,10.3c0,6,4,10.3,9.6,10.3s9.6-4.3,9.6-10.3
	C160,7.9,156,3.6,150.4,3.6z M150.4,21.4c-3.9,0-6.6-3-6.6-7.5c0-4.5,2.7-7.5,6.6-7.5s6.6,3,6.6,7.5C157,18.4,154.3,21.4,150.4,21.4
	z M125.6,15.9h9V17c0,2.7-2,4.4-6.1,4.4c-4.1,0-6.6-3-6.6-7.5c0-4.5,3.6-7.5,6.6-7.5c3,0,4.9,1.5,5.7,4h3.1
	c-1.1-4.4-3.1-6.8-8.8-6.8s-9.7,4.3-9.7,10.4c0,5.9,3.6,10.2,9.4,10.2c2.7,0,4.9-0.9,6-3h0.2v2.7h2.8V13.3h-11.8V15.9z M95.9,3.9
	L90.4,13h-0.3l-5.5-9.2h-3.1v0.3l7.2,11.9v7.8h3v-7.8l7.2-11.9V3.9H95.9z M76.3,3.9h-3.9L65,23.6v0.3h3l1.8-4.7h9.2l1.8,4.7h3v-0.3
	L76.3,3.9z M70.8,16.4l3.4-9.2h0.3l3.4,9.2H70.8z M59.1,15.7v-0.3c2.5-0.7,4.2-1.8,4.2-5.6c0-3.8-2.5-5.9-6.2-5.9h-8.7v20h3v-8.2
	h4.4l4.6,8.2h3.3v-0.3L59.1,15.7z M51.4,13V6.6H57c2,0,3.4,1.1,3.4,3.2c0,2-1.4,3.2-3.4,3.2H51.4z M38.2,3.9h-8v20h3v-7.3h5
	c4.3,0,6.9-2.1,6.9-6.3C45,6,42.4,3.9,38.2,3.9z M37.9,13.7L37.9,13.7l-4.8,0v-7h4.8c2.7,0,4.1,1.2,4.1,3.5
	C42,12.5,40.6,13.7,37.9,13.7z M11,6.8c-1.5,0-2.8,1.3-2.8,2.8c0,1.5,1.3,2.8,2.8,2.8c1.5,0,2.8-1.3,2.8-2.8
	C13.8,8.1,12.5,6.8,11,6.8z M11,6.8c-1.5,0-2.8,1.3-2.8,2.8c0,1.5,1.3,2.8,2.8,2.8c1.5,0,2.8-1.3,2.8-2.8C13.8,8.1,12.5,6.8,11,6.8z
	 M11,0C3.6,0,0,4.5,0,12v14h22V12C22,4.5,18.3,0,11,0z M2.7,23v-7.3c3,1.1,5.3,3.9,5.5,7.3H2.7z M19.2,23h-5.5
	c0.2-3.4,2.4-6.2,5.5-7.3V23z M19.2,12.8c-4.6,1.2-8,5.3-8.3,10.2h0c-0.2-4.9-3.6-9-8.3-10.2v-0.3c0-6.3,2.8-9.6,8.3-9.6
	c5.5,0,8.3,3.4,8.3,9.6V12.8z M11,6.8c-1.5,0-2.8,1.3-2.8,2.8c0,1.5,1.3,2.8,2.8,2.8c1.5,0,2.8-1.3,2.8-2.8
	C13.8,8.1,12.5,6.8,11,6.8z"/>
</svg>
