<?xml version="1.0" encoding="utf-8"?>
<!-- Generator: Adobe Illustrator 22.1.0, SVG Export Plug-In . SVG Version: 6.00 Build 0)  -->
<svg version="1.1" id="logotype" xmlns="http://www.w3.org/2000/svg" xmlns:xlink="http://www.w3.org/1999/xlink" x="0px" y="0px"
	 viewBox="0 0 22.5 26.4" style="enable-background:new 0 0 22.5 26.4;" xml:space="preserve">
<style type="text/css">
	.st0{clip-path:url(#SVGID_2_);}
	.st1{fill:#1E2029;}
</style>
<title  id="logoTitleID">Pray As You Go Logo - return to homepage</title>
<desc  data-sentry-element="desc" data-sentry-source-file="PAYGLogo.tsx" id="logoDescID">
	The Pray As You Go brand name with an abstract graphic in the shape of a church arch, links to the homepage</desc>
<g>
	<g>
		<defs>
			<polygon id="SVGID_1_" points="0,0.1 22.5,0 22.5,26.3 0,26.4 			"/>
		</defs>
		<clipPath id="SVGID_2_">
			<use xlink:href="#SVGID_1_"  style="overflow:visible;"/>
		</clipPath>
		<g class="st0">
			<path class="st1" d="M11,6.9c-1.5,0-2.8,1.3-2.8,2.8c0,1.6,1.2,2.8,2.8,2.8c1.5,0,2.8-1.3,2.8-2.8C13.8,8.1,12.5,6.9,11,6.9z"/>
			<path class="st1" d="M11,0.1c-7.4,0-11,4.5-11,12V26h22V12.1C22,4.6,18.4,0.1,11,0.1z M2.7,23.1v-7.3c3,1.1,5.3,3.9,5.5,7.3H2.7z
				 M19.2,23.1h-5.4c0.2-3.4,2.4-6.2,5.4-7.3V23.1z M19.3,12.9c-4.6,1.2-8,5.3-8.2,10.2c-0.2-4.9-3.6-9-8.2-10.2v-0.3H2.7
				C2.7,6.3,5.5,3,11,3s8.3,3.4,8.3,9.6V12.9z"/>
		</g>
	</g>
</g>
</svg>
